<svg id="mermaid-1600124857136" width="442.8242492675781" xmlns="http://www.w3.org/2000/svg" xmlns:xlink="http://www.w3.org/1999/xlink" height="393.6094055175781" viewBox="-20 -20 442.8242492675781 393.6094055175781"><style>#mermaid-1600124857136{font-family:"trebuchet ms",verdana,arial;font-size:16px;fill:#333;}#mermaid-1600124857136 .error-icon{fill:#552222;}#mermaid-1600124857136 .error-text{fill:#552222;stroke:#552222;}#mermaid-1600124857136 .edge-thickness-normal{stroke-width:2px;}#mermaid-1600124857136 .edge-thickness-thick{stroke-width:3.5px;}#mermaid-1600124857136 .edge-pattern-solid{stroke-dasharray:0;}#mermaid-1600124857136 .edge-pattern-dashed{stroke-dasharray:3;}#mermaid-1600124857136 .edge-pattern-dotted{stroke-dasharray:2;}#mermaid-1600124857136 .marker{fill:#333333;}#mermaid-1600124857136 .marker.cross{stroke:#333333;}#mermaid-1600124857136 svg{font-family:"trebuchet ms",verdana,arial;font-size:16px;}#mermaid-1600124857136 g.classGroup text{fill:#9370DB;fill:#131300;stroke:none;font-family:"trebuchet ms",verdana,arial;font-size:10px;}#mermaid-1600124857136 g.classGroup text .title{font-weight:bolder;}#mermaid-1600124857136 .node rect,#mermaid-1600124857136 .node circle,#mermaid-1600124857136 .node ellipse,#mermaid-1600124857136 .node polygon,#mermaid-1600124857136 .node path{fill:#ECECFF;stroke:#9370DB;stroke-width:1px;}#mermaid-1600124857136 .divider{stroke:#9370DB;stroke:1;}#mermaid-1600124857136 g.clickable{cursor:pointer;}#mermaid-1600124857136 g.classGroup rect{fill:#ECECFF;stroke:#9370DB;}#mermaid-1600124857136 g.classGroup line{stroke:#9370DB;stroke-width:1;}#mermaid-1600124857136 .classLabel .box{stroke:none;stroke-width:0;fill:#ECECFF;opacity:0.5;}#mermaid-1600124857136 .classLabel .label{fill:#9370DB;font-size:10px;}#mermaid-1600124857136 .relation{stroke:#333333;stroke-width:1;fill:none;}#mermaid-1600124857136 .dashed-line{stroke-dasharray:3;}#mermaid-1600124857136 #compositionStart,#mermaid-1600124857136 .composition{fill:#333333 !important;stroke:#333333 !important;stroke-width:1;}#mermaid-1600124857136 #compositionEnd,#mermaid-1600124857136 .composition{fill:#333333 !important;stroke:#333333 !important;stroke-width:1;}#mermaid-1600124857136 #dependencyStart,#mermaid-1600124857136 .dependency{fill:#333333 !important;stroke:#333333 !important;stroke-width:1;}#mermaid-1600124857136 #dependencyStart,#mermaid-1600124857136 .dependency{fill:#333333 !important;stroke:#333333 !important;stroke-width:1;}#mermaid-1600124857136 #extensionStart,#mermaid-1600124857136 .extension{fill:#333333 !important;stroke:#333333 !important;stroke-width:1;}#mermaid-1600124857136 #extensionEnd,#mermaid-1600124857136 .extension{fill:#333333 !important;stroke:#333333 !important;stroke-width:1;}#mermaid-1600124857136 #aggregationStart,#mermaid-1600124857136 .aggregation{fill:#ECECFF !important;stroke:#333333 !important;stroke-width:1;}#mermaid-1600124857136 #aggregationEnd,#mermaid-1600124857136 .aggregation{fill:#ECECFF !important;stroke:#333333 !important;stroke-width:1;}#mermaid-1600124857136:root{--mermaid-font-family:"trebuchet ms",verdana,arial;}#mermaid-1600124857136 class{fill:apa;}</style><g></g><defs><marker id="extensionStart" class="extension" refX="0" refY="7" markerWidth="190" markerHeight="240" orient="auto"><path d="M 1,7 L18,13 V 1 Z"></path></marker></defs><defs><marker id="extensionEnd" refX="19" refY="7" markerWidth="20" markerHeight="28" orient="auto"><path d="M 1,1 V 13 L18,7 Z"></path></marker></defs><defs><marker id="compositionStart" class="extension" refX="0" refY="7" markerWidth="190" markerHeight="240" orient="auto"><path d="M 18,7 L9,13 L1,7 L9,1 Z"></path></marker></defs><defs><marker id="compositionEnd" refX="19" refY="7" markerWidth="20" markerHeight="28" orient="auto"><path d="M 18,7 L9,13 L1,7 L9,1 Z"></path></marker></defs><defs><marker id="aggregationStart" class="extension" refX="0" refY="7" markerWidth="190" markerHeight="240" orient="auto"><path d="M 18,7 L9,13 L1,7 L9,1 Z"></path></marker></defs><defs><marker id="aggregationEnd" refX="19" refY="7" markerWidth="20" markerHeight="28" orient="auto"><path d="M 18,7 L9,13 L1,7 L9,1 Z"></path></marker></defs><defs><marker id="dependencyStart" class="extension" refX="0" refY="7" markerWidth="190" markerHeight="240" orient="auto"><path d="M 5,7 L9,13 L1,7 L9,1 Z"></path></marker></defs><defs><marker id="dependencyEnd" refX="19" refY="7" markerWidth="20" markerHeight="28" orient="auto"><path d="M 18,7 L9,13 L14,7 L9,1 Z"></path></marker></defs><g id="classid-messageQueue-30" class="classGroup" transform="translate(317.12890625,10.875 )"><rect x="0" y="0" width="79.578125" height="58.5" class=" "></rect><text y="15" x="0"><tspan class="title" x="5">messageQueue</tspan></text><line x1="0" y1="21.75" y2="21.75" x2="79.578125"></line><text x="5" y="31.75" fill="white" class="classText"></text><line x1="0" y1="26.75" y2="26.75" x2="79.578125"></line><text x="5" y="41.75" fill="white" class="classText"><tspan x="5">+push()</tspan><tspan x="5" dy="10">+pop()</tspan></text></g><g id="classid-message-31" class="classGroup" transform="translate(331.01171875,155.25 )"><rect x="0" y="0" width="71.8125" height="80.25" class=" "></rect><text y="15" x="0"><tspan class="title" x="16.3203125">message</tspan></text><line x1="0" y1="21.75" y2="21.75" x2="71.8125"></line><text x="5" y="31.75" fill="white" class="classText"><tspan x="5">-string name</tspan><tspan x="5" dy="10">-string body</tspan></text><line x1="0" y1="48.5" y2="48.5" x2="71.8125"></line><text x="5" y="63.5" fill="white" class="classText"><tspan x="5">+set_name()</tspan><tspan x="5" dy="10">+get_name()</tspan></text></g><g id="classid-session-32" class="classGroup" transform="translate(0,130.25 )"><rect x="0" y="0" width="140.203125" height="130.25" class=" "></rect><text y="15" x="0"><tspan class="title" x="53.4921875">session</tspan></text><line x1="0" y1="21.75" y2="21.75" x2="140.203125"></line><text x="5" y="31.75" fill="white" class="classText"><tspan x="5">-socket connected_sock</tspan><tspan x="5" dy="10">-queue&lt;string&gt;</tspan><tspan x="5" dy="10">-streambuffer sbuff</tspan><tspan x="5" dy="10">-function messsage_handler</tspan><tspan x="5" dy="10">-function error_handler</tspan></text><line x1="0" y1="78.5" y2="78.5" x2="140.203125"></line><text x="5" y="93.5" fill="white" class="classText"><tspan x="5">-async_write()</tspan><tspan x="5" dy="10">-async_read()</tspan><tspan x="5" dy="10">+put()</tspan><tspan x="5" dy="10">+start()</tspan></text></g><g id="classid-participants-33" class="classGroup" transform="translate(190.0625,310.5 )"><rect x="0" y="0" width="71.8125" height="43.109375" class=" "></rect><text y="15" x="0"><tspan class="title" x="8">participants</tspan></text><line x1="0" y1="21.75" y2="21.75" x2="71.8125"></line><text x="5" y="31.75" fill="white" class="classText"><tspan x="5">-string name</tspan></text><line x1="0" y1="38.5" y2="38.5" x2="71.8125"></line><text x="5" y="53.5" fill="white" class="classText"></text></g><g id="classid-server-34" class="classGroup" transform="translate(165.53125,0 )"><rect x="0" y="0" width="100.875" height="80.25" class=" "></rect><text y="15" x="0"><tspan class="title" x="35.359375">server</tspan></text><line x1="0" y1="21.75" y2="21.75" x2="100.875"></line><text x="5" y="31.75" fill="white" class="classText"><tspan x="5">-io_context io</tspan><tspan x="5" dy="10">-acceptor acceptor</tspan></text><line x1="0" y1="48.5" y2="48.5" x2="100.875"></line><text x="5" y="63.5" fill="white" class="classText"><tspan x="5">-async_accept()</tspan><tspan x="5" dy="10">+start()</tspan></text></g><g id="classid-room-35" class="classGroup" transform="translate(190.203125,161.125 )"><rect x="0" y="0" width="71.53125" height="68.5" class=" "></rect><text y="15" x="0"><tspan class="title" x="23.671875">room</tspan></text><line x1="0" y1="21.75" y2="21.75" x2="71.53125"></line><text x="5" y="31.75" fill="white" class="classText"></text><line x1="0" y1="26.75" y2="26.75" x2="71.53125"></line><text x="5" y="41.75" fill="white" class="classText"><tspan x="5">+join()</tspan><tspan x="5" dy="10">+leave()</tspan><tspan x="5" dy="10">+broadcast()</tspan></text></g><path d="M361.40933151391556,69.375L362.3274377199296,75.35416666666667C363.24554392594365,81.33333333333333,365.08175633797185,93.29166666666667,365.9998625439859,107.60416666666667C366.91796875,121.91666666666667,366.91796875,138.58333333333334,366.91796875,146.91666666666666L366.91796875,155.25" id="edge24" class="relation" marker-start="url(#aggregationStart)"></path><path d="M70.1015625,260.5L70.1015625,264.6666666666667C70.1015625,268.8333333333333,70.1015625,277.1666666666667,90.09505208333333,287.30502419730425C110.08854166666667,297.4433817279418,150.07552083333334,309.38676345588357,170.06901041666666,315.3584543198545L190.0625,321.3301451838254" id="edge25" class="relation" marker-start="url(#dependencyStart)"></path><path d="M215.96875,80.25L215.96875,84.41666666666667C215.96875,88.58333333333333,215.96875,96.91666666666667,217.00203710124825,110.39583333333333C218.03532420249653,123.875,220.10189840499308,142.5,221.13518550624133,151.8125L222.1684726074896,161.125" id="edge26" class="relation" marker-start="url(#compositionStart)"></path><path d="M329.59434231046066,69.375L324.0089571337172,75.35416666666667C318.4235719569738,81.33333333333333,307.2528016034869,93.29166666666667,294.4227015125618,108.58333333333333C281.59260142163663,123.875,267.1031715932732,142.5,259.8584566790915,151.8125L252.61374176490983,161.125" id="edge27" class="relation" marker-end="url(#aggregationEnd)"></path><path d="M225.96875,229.625L225.96875,238.9375C225.96875,248.25,225.96875,266.875,225.96875,280.3541666666667C225.96875,293.8333333333333,225.96875,302.1666666666667,225.96875,306.3333333333333L225.96875,310.5" id="edge28" class="relation" marker-start="url(#aggregationStart)"></path><path d="M366.91796875,235.5L366.91796875,243.83333333333334C366.91796875,252.16666666666666,366.91796875,268.8333333333333,349.4108072916667,282.9491778287213C331.9036458333333,297.06502232410924,296.8893229166667,308.6300446482185,279.3821614583333,314.4125558102731L261.875,320.1950669723277" id="edge29" class="relation" marker-start="url(#aggregationStart)"></path></svg>